De Heineken Ontvoering (2011) DVDRip PAL Dutch DD5.1 No Subs
.
Voor de liefhebbers, netjes de dvdrip omgezet in de hoogste kwaliteit, wachten is op de retail dvd.
.
[IMG]http://img832.imageshack.us/img832/7168/75990.jpg[/IMG]
.
Nederland
Misdaad / Thriller
120 minuten

geregisseerd door Maarten Treurniet
met Rutger Hauer, Reinout Scholten van Aschat en Gijs Naber

De Heineken Ontvoering is ge´nspireerd op de bekendste ontvoeringszaak in Nederland. De biermagnaat Alfred Heineken wordt in 1983 samen met zijn chauffeur Ab Doderer ontvoerd door vier mannen, die 35 miljoen gulden losgeld eisen. Vier jonge, op geld beluste criminelen die elkaar al van jongs af aan kennen en een hechte clan vormen, sluiten Heineken en Doderer twee weken lang op in een Amsterdamse loods. De film laat het spannende verhaal van de ontvoering en de jacht op de daders zien, maar biedt ook een kijkje in de psychologische machtsstrijd tussen Heineken en zijn ontvoerders.

Vanaf 21 februari te huur
Vanaf 8 maart te koop op Blu-Ray en DVD
. 
http://www.moviemeter.nl/film/75990
.
PLOT
. 
http://www.imdb.com/title/tt1846526/
.
INFO
.
Source: exvid-paardenpis-cd1.r00, exvid-paardenpis-cd2.r00
2CD versie Onduidelijk maar weet zeker dat dit een dvdrip is kwaliteit is zeer goed.
Video: PAL @2passes HQ error correction on. (TMPGEnc Authoring Works 4)
Audio Dutch
Subs: No
.
Enjoy
.
Info from the first VOB
.
Format                                   : MPEG-PS
File size                                : 1 024 MiB
Duration                                 : 29mn 48s
Overall bit rate mode                    : Variable
Overall bit rate                         : 4 801 Kbps
Writing library                          : encoded by TMPGEnc Authoring Works 4 Version. 4.0.11.39

Video
ID                                       : 224 (0xE0)
Format                                   : MPEG Video
Format version                           : Version 2
Format profile                           : Main@Main
Format settings, BVOP                    : Yes
Format settings, Matrix                  : Custom
Format settings, GOP                     : M=3, N=15
Duration                                 : 29mn 48s
Bit rate mode                            : Variable
Bit rate                                 : 4 258 Kbps
Maximum bit rate                         : 8 000 Kbps
Width                                    : 720 pixels
Height                                   : 576 pixels
Display aspect ratio                     : 16:9
Frame rate                               : 25.000 fps
Standard                                 : PAL
Color space                              : YUV
Chroma subsampling                       : 4:2:0
Bit depth                                : 8 bits
Scan type                                : Interlaced
Scan order                               : Bottom Field First
Compression mode                         : Lossy
Bits/(Pixel*Frame)                       : 0.411
Stream size                              : 908 MiB (89%)
Writing library                          : TMPGEnc Authoring Works 4 Version. 4.0.11.39
Color primaries                          : BT.470-2 System B, BT.470-2 System G
Transfer characteristics                 : BT.470-2 System B, BT.470-2 System G
Matrix coefficients                      : BT.470-2 System B, BT.470-2 System G

Audio
ID                                       : 189 (0xBD)-128 (0x80)
Format                                   : AC-3
Format/Info                              : Audio Coding 3
Mode extension                           : CM (complete main)
Muxing mode                              : DVD-Video
Duration                                 : 29mn 48s
Bit rate mode                            : Constant
Bit rate                                 : 448 Kbps
Channel(s)                               : 6 channels
Channel positions                        : Front: L C R, Side: L R, LFE
Sampling rate                            : 48.0 KHz
Bit depth                                : 16 bits
Compression mode                         : Lossy
Stream size                              : 95.5 MiB (9%)
